<?xml version="1.0" standalone="no"?>
<!DOCTYPE svg PUBLIC "-//W3C//DTD SVG 20010904//EN"
 "http://www.w3.org/TR/2001/REC-SVG-20010904/DTD/svg10.dtd">
<svg version="1.0" xmlns="http://www.w3.org/2000/svg"
 width="512.000000pt" height="512.000000pt" viewBox="0 0 512.000000 512.000000"
 preserveAspectRatio="xMidYMid meet">
<metadata>
Created by potrace 1.11, written by Peter Selinger 2001-2013
</metadata>
<g transform="translate(0.000000,512.000000) scale(0.100000,-0.100000)"
fill="#000000" stroke="none">
<path d="M0 2560 l0 -2560 2560 0 2560 0 0 2560 0 2560 -2560 0 -2560 0 0
-2560z m3505 1044 c217 -44 363 -195 389 -401 l7 -52 -33 -5 c-18 -3 -90 -7
-160 -9 l-127 -5 -7 32 c-3 17 -17 52 -30 78 -43 84 -117 118 -258 118 -118 0
-184 -19 -236 -69 -35 -33 -40 -44 -40 -82 0 -72 37 -112 139 -152 24 -10 134
-43 244 -73 322 -88 431 -153 502 -297 118 -240 24 -528 -209 -642 -121 -59
-179 -70 -376 -69 -193 0 -252 11 -369 66 -86 41 -177 133 -224 226 -36 72
-74 211 -64 235 3 9 47 17 138 25 74 7 141 12 150 12 10 0 19 -17 28 -49 26
-101 81 -174 166 -219 47 -25 58 -27 180 -27 144 1 175 10 241 67 98 86 96
216 -5 280 -47 29 -61 34 -338 111 -208 59 -296 99 -373 173 -249 237 -140
620 204 719 122 35 312 39 461 9z m-1368 -31 c91 -26 148 -59 202 -118 127
-137 154 -359 67 -540 -63 -132 -142 -196 -293 -236 -68 -18 -117 -22 -375
-26 l-298 -6 0 -323 0 -324 -100 0 -100 0 0 801 0 801 413 -4 c377 -4 418 -6
484 -25z"/>
<path d="M1445 3407 c-3 -7 -4 -138 -3 -292 l3 -280 195 -3 c211 -3 358 8 431
33 111 38 171 131 171 265 0 85 -18 141 -67 198 -64 76 -147 91 -508 92 -166
0 -219 -3 -222 -13z"/>
</g>
</svg>
